#!OML:ASF F:\VICON\USERDATA\INSTALL\Justin_Nancy\Justin_Nancy.ASF
:FULLY-SPECIFIED
:DEGREES
179
root -0.698873 17.0859 5.40626 -0.775349 74.0984 -7.54328
lowerback 8.3942 2.46127 1.42918
upperback 0.297694 3.53065 1.99478
thorax -4.43582 1.74913 0.839902
lowerneck -15.5217 -2.51503 -8.30961
upperneck 22.7374 -1.65855 2.3388
head 9.89902 -1.1235 2.01052
rclavicle -2.50469e-014 2.62396e-014
rhumerus -36.4172 -11.1463 -75.9584
rradius 31.4183
rwrist 0.416231
rhand -22.6352 11.7891
rfingers 7.12502
rthumb 3.7954 -18.1569
lclavicle -2.50469e-014 2.62396e-014
lhumerus -41.2026 21.114 75.019
lradius 26.0782
lwrist -7.46748
lhand -17.4279 22.5678
lfingers 7.12502
lthumb 8.82245 52.3634
rfemur -21.0946 -4.40071 14.2841
rtibia 75.7825
rfoot -1.99774 -4.94119
rtoes -9.80267
lfemur -18.8351 3.43497 -33.7404
ltibia 31.8851
lfoot -16.8934 4.16411
ltoes 19.1898
180
root -0.525883 17.0715 5.45197 0.900588 74.1515 -6.59478
lowerback 7.84825 2.37197 1.87578
upperback 0.0701785 3.4266 1.73362
thorax -4.32304 1.68421 0.352173
lowerneck -15.6284 -2.42459 -8.4301
upperneck 22.8063 -1.52847 2.49208
head 9.93791 -1.05718 2.10231
rclavicle 2.33572e-014 1.59028e-015
rhumerus -36.4414 -11.4702 -75.9367
rradius 31.2683
rwrist 1.25496
rhand -21.4548 11.6155
rfingers 7.12502
rthumb 4.93517 -18.307
lclavicle 2.33572e-014 1.59028e-015
lhumerus -40.6792 20.8384 75.8362
lradius 26.4554
lwrist -7.17216
lhand -16.9229 22.6804
lfingers 7.12502
lthumb 9.30969 52.4548
rfemur -24.4935 -3.97727 13.7537
rtibia 76.6545
rfoot -3.57734 -4.86168
rtoes -8.38032
lfemur -18.7436 3.15167 -34.0618
ltibia 31.5849
lfoot -17.2342 4.49508
ltoes 17.5557
181
root -0.349773 17.0526 5.54123 4.10856 74.4018 -3.86025
lowerback 7.21124 2.33074 1.03922
upperback 0.0176572 3.27686 1.66593
thorax -4.06297 1.62757 0.79223
lowerneck -15.7179 -2.37835 -8.21903
upperneck 22.7981 -1.4044 2.07069
head 9.94122 -1.02949 1.93418
rclavicle -5.24792e-014 -6.36111e-015
rhumerus -36.4129 -11.9982 -75.6013
rradius 31.2079
rwrist 2.02738
rhand -20.5964 11.3784
rfingers 7.12502
rthumb 5.76405 -18.5232
lclavicle -5.24792e-014 -6.36111e-015
lhumerus -39.9575 19.8936 77.3636
lradius 26.9314
lwrist -5.96777
lhand -17.2242 22.9052
lfingers 7.12502
lthumb 9.01897 52.6924
rfemur -27.607 -3.64596 12.8904
rtibia 77.2552
rfoot -4.87787 -5.0321
rtoes -8.65318
lfemur -18.4302 2.7706 -34.7619
ltibia 31.2994
lfoot -17.113 5.16708
ltoes 10.5722
182
root -0.179097 17.0238 5.66828 9.72948 75.3839 2.06383
lowerback 7.29908 2.0961 -0.879235
upperback 0.0841623 2.79051 1.47319
thorax -4.12075 1.42084 1.71684
lowerneck -15.6052 -2.33292 -7.90639
upperneck 22.6677 -1.32207 1.62291
head 9.86412 -1.01327 1.73442
rclavicle 1.81888e-014 1.51076e-014
rhumerus -36.5259 -12.4113 -75.5231
rradius 31.1328
rwrist 2.23372
rhand -20.5722 11.1341
rfingers 7.12502
rthumb 5.78737 -18.7669
lclavicle 1.81888e-014 1.51076e-014
lhumerus -39.3343 18.8867 78.6474
lradius 27.4303
lwrist -5.18294
lhand -18.1169 23.3338
lfingers 7.12502
lthumb 8.1575 53.1563
rfemur -29.7402 -4.09899 11.2139
rtibia 77.6582
rfoot -6.23003 -5.27103
rtoes -8.66812
lfemur -17.14 2.22999 -36.102
ltibia 30.7171
lfoot -17.0411 5.24827
ltoes 5.20424
183
root -0.00643717 17.0064 5.77711 9.23468 76.679 2.94345
lowerback 8.77147 1.73278 -1.21839
upperback 0.479877 2.28622 1.71783
thorax -4.53904 1.18264 2.18216
lowerneck -15.3846 -2.29599 -7.98943
upperneck 22.3418 -1.25237 1.52442
head 9.70427 -0.994461 1.72075
rclavicle 5.19822e-014 1.19271e-014
rhumerus -36.5727 -12.3056 -75.6431
rradius 31.0677
rwrist 2.30979
rhand -20.5318 11.1076
rfingers 7.12502
rthumb 5.82642 -18.7923
lclavicle 5.19822e-014 1.19271e-014
lhumerus -38.7408 18.4088 79.6562
lradius 27.8221
lwrist -5.10696
lhand -17.8666 23.0497
lfingers 7.12502
lthumb 8.39908 52.8627
rfemur -30.0467 -4.10789 11.0493
rtibia 77.6025
rfoot -7.7906 -5.46841
rtoes -6.40613
lfemur -14.3023 1.74234 -35.7886
ltibia 29.7756
lfoot -17.7543 4.4115
ltoes 11.5671
